<svg xmlns="http://www.w3.org/2000/svg" viewBox="0 0 160 36" fill="none" aria-hidden="true">
  <g transform="translate(0,1)"><defs>
    <linearGradient id="shield-body" x1="8" y1="2" x2="24" y2="34" gradientUnits="userSpaceOnUse">
      <stop offset="0" stop-color="#14b8a6"/>
      <stop offset="1" stop-color="#0d9488"/>
    </linearGradient>
  </defs>
  <path d="M18 2.5c5.8 0 10.8 1.8 12.6 3.2v11.4c0 7.4-5.2 13.8-12.6 15.9C10.6 30.8 5.4 24.4 5.4 17.1V5.7C7.2 4.3 12.2 2.5 18 2.5Z" fill="url(#shield-body)"/>
  <path d="M18 6.2c4.6 0 8.6 1.3 9.9 2.1v9.1c0 5.6-3.9 10.4-9.9 12.1-6-1.7-9.9-6.5-9.9-12.1V8.3c1.3-.8 5.3-2.1 9.9-2.1Z" fill="none" stroke="rgba(0,0,0,0.22)" stroke-width="1"/>
  <path d="M12.8 16.1 16.4 18.6 12.8 21.1" fill="none" stroke="#ccfbf1" stroke-width="2.1" stroke-linecap="round" stroke-linejoin="round"/>
  <rect x="17.1" y="19.6" width="7.2" height="2" rx="1" fill="#042f2e"/>
  <path d="M11.2 24.8c2.2 1.1 4.4 1.6 6.8 1.6s4.6-.5 6.8-1.6" fill="none" stroke="rgba(0,0,0,0.22)" stroke-width="1.1" stroke-linecap="round"/></g>
  <path fill="#f8fafc" d="M49.24 23.31Q48.15 23.31 47.22 23.72Q46.29 24.14 45.64 24.85Q44.99 25.56 44.68 26.49L46.23 27.14Q46.65 26.07 47.46 25.5Q48.26 24.93 49.32 24.93Q49.94 24.93 50.4 25.12Q50.87 25.31 51.12 25.67Q51.38 26.03 51.38 26.49Q51.38 27.13 51.02 27.5Q50.67 27.87 49.97 28.09L47.8 28.77Q46.5 29.17 45.81 30Q45.13 30.83 45.13 31.95Q45.13 32.92 45.61 33.66Q46.09 34.4 46.94 34.82Q47.78 35.23 48.87 35.23Q49.91 35.23 50.76 34.87Q51.61 34.51 52.22 33.87Q52.84 33.23 53.11 32.4L51.6 31.73Q51.25 32.64 50.53 33.14Q49.81 33.64 48.87 33.64Q48.29 33.64 47.86 33.44Q47.43 33.25 47.19 32.89Q46.95 32.52 46.95 32.04Q46.95 31.48 47.3 31.05Q47.66 30.61 48.39 30.4L50.4 29.76Q51.78 29.34 52.48 28.56Q53.18 27.78 53.18 26.62Q53.18 25.65 52.67 24.91Q52.17 24.17 51.29 23.74Q50.4 23.31 49.24 23.31Z M55.05 23.5L55.05 35.23L56.8 35.23L56.8 30.24L56.52 30.46Q56.83 31.25 57.52 31.66Q58.2 32.07 59.1 32.07Q60.03 32.07 60.74 31.67Q61.45 31.27 61.86 30.55Q62.26 29.84 62.26 28.93L62.26 23.5L60.52 23.5L60.52 28.44Q60.52 29.08 60.28 29.52Q60.04 29.96 59.62 30.2Q59.21 30.44 58.66 30.44Q58.14 30.44 57.71 30.2Q57.28 29.96 57.04 29.51Q56.8 29.06 56.8 28.44L56.8 23.5Z M64.13 23.5L64.13 31.89L65.89 31.89L65.89 23.5ZM64.13 33.03L64.13 35.05L65.89 35.05L65.89 33.03Z M71.87 23.31Q70.61 23.31 69.64 23.9Q68.68 24.48 68.13 25.48Q67.59 26.48 67.59 27.72Q67.59 28.99 68.14 29.96Q68.69 30.94 69.62 31.51Q70.55 32.07 71.73 32.07Q72.68 32.07 73.42 31.75Q74.16 31.42 74.67 30.85Q75.19 30.29 75.46 29.56Q75.73 28.83 75.73 28.01Q75.73 27.81 75.71 27.59Q75.7 27.38 75.65 27.19L68.97 27.19L68.97 28.58L74.66 28.58L73.82 27.95Q73.98 28.71 73.72 29.3Q73.47 29.9 72.95 30.25Q72.43 30.6 71.73 30.6Q71.03 30.6 70.49 30.25Q69.95 29.9 69.65 29.26Q69.36 28.62 69.42 27.7Q69.34 26.85 69.66 26.21Q69.98 25.58 70.56 25.22Q71.14 24.86 71.88 24.86Q72.64 24.86 73.18 25.21Q73.71 25.55 74.02 26.09L75.45 25.39Q75.2 24.8 74.68 24.33Q74.16 23.86 73.44 23.59Q72.72 23.31 71.87 23.31Z M77.43 23.5L77.43 35.23L79.19 35.23L79.19 23.5Z M85.11 23.31Q83.9 23.31 82.94 23.9Q81.99 24.48 81.44 25.47Q80.89 26.46 80.89 27.7Q80.89 28.94 81.45 29.93Q82.01 30.92 82.95 31.5Q83.9 32.07 85.09 32.07Q86.1 32.07 86.87 31.67Q87.65 31.27 88.1 30.55L87.83 30.15L87.83 35.23L89.57 35.23L89.57 23.5L87.91 23.5L87.91 25.21L88.11 24.88Q87.68 24.12 86.87 23.72Q86.07 23.31 85.11 23.31ZM85.28 24.94Q86.01 24.94 86.59 25.3Q87.17 25.65 87.5 26.28Q87.83 26.91 87.83 27.7Q87.83 28.49 87.5 29.11Q87.17 29.73 86.59 30.09Q86.01 30.44 85.28 30.44Q84.55 30.44 83.96 30.09Q83.37 29.73 83.04 29.11Q82.72 28.49 82.72 27.7Q82.72 26.91 83.04 26.28Q83.37 25.65 83.95 25.3Q84.53 24.94 85.28 24.94Z M95.55 23.31Q94.3 23.31 93.33 23.9Q92.36 24.48 91.82 25.48Q91.28 26.48 91.28 27.72Q91.28 28.99 91.83 29.96Q92.38 30.94 93.31 31.51Q94.24 32.07 95.41 32.07Q96.36 32.07 97.1 31.75Q97.85 31.42 98.36 30.85Q98.87 30.29 99.14 29.56Q99.41 28.83 99.41 28.01Q99.41 27.81 99.4 27.59Q99.38 27.38 99.34 27.19L92.65 27.19L92.65 28.58L98.34 28.58L97.51 27.95Q97.66 28.71 97.41 29.3Q97.15 29.9 96.63 30.25Q96.11 30.6 95.41 30.6Q94.72 30.6 94.17 30.25Q93.63 29.9 93.34 29.26Q93.04 28.62 93.1 27.7Q93.03 26.85 93.34 26.21Q93.66 25.58 94.24 25.22Q94.82 24.86 95.57 24.86Q96.33 24.86 96.86 25.21Q97.4 25.55 97.71 26.09L99.13 25.39Q98.89 24.8 98.37 24.33Q97.85 23.86 97.13 23.59Q96.41 23.31 95.55 23.31Z M104.99 23.31Q103.78 23.31 102.83 23.9Q101.88 24.48 101.33 25.47Q100.78 26.46 100.78 27.7Q100.78 28.94 101.33 29.93Q101.89 30.92 102.84 31.5Q103.78 32.07 104.98 32.07Q105.98 32.07 106.76 31.67Q107.53 31.27 107.98 30.55L107.72 30.15L107.72 35.23L109.46 35.23L109.46 23.5L107.8 23.5L107.8 25.21L108 24.88Q107.57 24.12 106.76 23.72Q105.95 23.31 104.99 23.31ZM105.16 24.94Q105.89 24.94 106.47 25.3Q107.05 25.65 107.39 26.28Q107.72 26.91 107.72 27.7Q107.72 28.49 107.39 29.11Q107.05 29.73 106.47 30.09Q105.89 30.44 105.16 30.44Q104.43 30.44 103.85 30.09Q103.26 29.73 102.93 29.11Q102.61 28.49 102.61 27.7Q102.61 26.91 102.93 26.28Q103.26 25.65 103.84 25.3Q104.42 24.94 105.16 24.94Z"/>
  <path fill="#2dd4bf" d="M116.86 23.36Q115.77 23.36 114.97 23.72Q114.18 24.08 113.75 24.75Q113.32 25.43 113.31 26.34L115.12 26.34Q115.12 25.69 115.59 25.32Q116.06 24.95 116.87 24.95Q117.66 24.95 118.1 25.31Q118.54 25.68 118.54 26.31Q118.54 26.85 118.23 27.25Q117.92 27.65 117.34 27.79L116.12 28.13Q114.87 28.44 114.2 29.27Q113.52 30.1 113.52 31.27Q113.52 32.17 113.93 32.84Q114.34 33.51 115.08 33.87Q115.83 34.23 116.84 34.23Q118.38 34.23 119.28 33.44Q120.18 32.65 120.19 31.32L118.38 31.32Q118.38 31.94 117.98 32.29Q117.57 32.65 116.83 32.65Q116.12 32.65 115.73 32.32Q115.34 31.98 115.34 31.37Q115.34 30.82 115.63 30.44Q115.93 30.05 116.5 29.89L117.76 29.55Q119.02 29.23 119.69 28.41Q120.35 27.59 120.35 26.39Q120.35 25.49 119.92 24.8Q119.48 24.11 118.7 23.73Q117.92 23.36 116.86 23.36Z M122.3 23.5L122.3 34.09L124.11 34.09L124.11 31.48L124.07 29.95L124.56 29.95L124.07 29.53Q124.07 30.52 124.64 31.07Q125.21 31.62 126.21 31.62Q127.39 31.62 128.09 30.84Q128.79 30.05 128.79 28.73L128.79 23.5L126.98 23.5L126.98 28.55Q126.98 29.27 126.6 29.66Q126.23 30.05 125.54 30.05Q124.88 30.05 124.49 29.65Q124.11 29.24 124.11 28.49L124.11 23.5Z M134.24 23.36Q133.23 23.36 132.48 23.75Q131.72 24.14 131.31 24.84Q130.89 25.54 130.89 26.49L130.89 28.49Q130.89 29.43 131.31 30.13Q131.72 30.84 132.48 31.23Q133.23 31.62 134.24 31.62Q135.24 31.62 135.99 31.23Q136.74 30.84 137.15 30.13Q137.56 29.43 137.56 28.49L137.56 27.05L132.65 27.05L132.65 26.49Q132.65 25.65 133.06 25.22Q133.46 24.79 134.26 24.79Q134.87 24.79 135.24 25Q135.62 25.21 135.72 25.62L137.51 25.62Q137.3 24.59 136.41 23.97Q135.52 23.36 134.24 23.36ZM135.81 28.07L135.81 28.5Q135.81 29.33 135.42 29.77Q135.03 30.21 134.24 30.21Q133.46 30.21 133.06 29.76Q132.65 29.31 132.65 28.49L132.65 28.18L135.94 28.21Z M144.15 23.5Q143.36 23.5 142.78 23.82Q142.19 24.14 141.86 24.73Q141.52 25.31 141.52 26.08L141.52 32.45L138.97 32.45L138.97 34.09L143.34 34.09L143.34 26.08Q143.34 25.65 143.59 25.39Q143.84 25.14 144.28 25.14L146.69 25.14L146.69 23.5Z M152.85 23.5Q152.06 23.5 151.48 23.82Q150.89 24.14 150.56 24.73Q150.22 25.31 150.22 26.08L150.22 32.45L147.67 32.45L147.67 34.09L152.04 34.09L152.04 26.08Q152.04 25.65 152.29 25.39Q152.54 25.14 152.98 25.14L155.39 25.14L155.39 23.5Z"/>
</svg>
